# xmcd
#
# Track frame offsets: 
#        150
#        9519
#        20281
#        31273
#        42119
#        59450
#        69094
#        81514
#        94042
#        105257
#        115538
#        127578
#        139291
#        148660
#        159422
#        170417
#        181263
#        198594
#        208238
#        220661
#        233189
#        244404
#        254685
#        266725
#        278438
#        283491
#        296849
#        312755
#        328484
#        339072
#
# Disc length: 4674 seconds
#
# Revision: 0
# Processed by: cddbd v1.5.2PL0 Copyright (c) Steve Scherf et al.
# Submitted via: ExactAudioCopy v0.95b3
#
DISCID=b912401e
DTITLE=The Monkees - The Monkees Complete 24 of 28 
DYEAR=1900
DGENRE=
TTITLE0=Little Girl
TTITLE1=Good Clean Fun
TTITLE2=If I Knew
TTITLE3=Bye Bye Baby Bye Bye
TTITLE4=Never Tell A Woman Yes
TTITLE5=Looking For The Good Times
TTITLE6=Ladies Aid Society
TTITLE7=Listen To The Band
TTITLE8=French Song
TTITLE9=Mommy And Daddy
TTITLE10=Oklahoma Backroom Dancer
TTITLE11=Pillow Time
TTITLE12=Little Girl (mono)
TTITLE13=Good Clean Fun (mono)
TTITLE14=If I Knew (mono)
TTITLE15=Bye Bye Baby Bye Bye (mono)
TTITLE16=Never Tell A Woman Yes (mono)
TTITLE17=Looking For The Good Times (mono)
TTITLE18=Ladies Aid Society (mono)
TTITLE19=Listen To The Band (mono)
TTITLE20=French Song (mono)
TTITLE21=Mommy And Daddy (mono)
TTITLE22=Oklahoma Backroom Dancer (mono)
TTITLE23=Pillow Time (mono)
TTITLE24="The Monkees Present" Radio Spot
TTITLE25=Daydream Believer (Tonight Show 6-16-69)
TTITLE26=Goin' Down (Tonight Show 6-16-69)
TTITLE27=Angel Band
TTITLE28=Bye Bye Baby Bye Bye (alt. mix)
TTITLE29=Calico Girlfriend Samba
EXTD=
EXTT0=
EXTT1=
EXTT2=
EXTT3=
EXTT4=
EXTT5=
EXTT6=
EXTT7=
EXTT8=
EXTT9=
EXTT10=
EXTT11=
EXTT12=
EXTT13=
EXTT14=
EXTT15=
EXTT16=
EXTT17=
EXTT18=
EXTT19=
EXTT20=
EXTT21=
EXTT22=
EXTT23=
EXTT24=
EXTT25=
EXTT26=
EXTT27=
EXTT28=
EXTT29=
PLAYORDER=
